<?xml version="1.0" encoding="UTF-8"?>
<svg width="86px" height="94px" viewBox="0 0 86 94" version="1.1" xmlns="http://www.w3.org/2000/svg" xmlns:xlink="http://www.w3.org/1999/xlink">
    <!-- Generator: Sketch 52.4 (67378) - http://www.bohemiancoding.com/sketch -->
    <title>Group</title>
    <desc>Created with Sketch.</desc>
    <g id="Page-1" stroke="none" stroke-width="1" fill="none" fill-rule="evenodd" opacity="0.803803943">
        <g id="calender" fill="#FFFFFF" fill-rule="nonzero">
            <g id="Group">
                <path d="M77.75,10.125 L75.53,10.125 L75.53,6.125 C75.53,3.092 73.062,0.625 70.03,0.625 L68.03,0.625 C64.998,0.625 62.53,3.092 62.53,6.125 L62.53,10.125 L23.47,10.125 L23.47,6.125 C23.47,3.092 21.002,0.625 17.97,0.625 L15.97,0.625 C12.938,0.625 10.47,3.092 10.47,6.125 L10.47,10.125 L8.25,10.125 C4.114,10.125 0.75,13.489 0.75,17.625 L0.75,85.875 C0.75,90.011 4.114,93.375 8.25,93.375 L77.75,93.375 C81.886,93.375 85.25,90.011 85.25,85.875 L85.25,17.625 C85.25,13.489 81.886,10.125 77.75,10.125 Z M65.53,10.125 L65.53,6.125 C65.53,4.747 66.651,3.625 68.03,3.625 L70.03,3.625 C71.409,3.625 72.53,4.747 72.53,6.125 L72.53,10.125 L72.53,17.125 C72.53,18.503 71.409,19.625 70.03,19.625 L68.03,19.625 C66.651,19.625 65.53,18.503 65.53,17.125 L65.53,10.125 Z M13.47,10.125 L13.47,6.125 C13.47,4.747 14.591,3.625 15.97,3.625 L17.97,3.625 C19.349,3.625 20.47,4.747 20.47,6.125 L20.47,10.125 L20.47,17.125 C20.47,18.503 19.349,19.625 17.97,19.625 L15.97,19.625 C14.591,19.625 13.47,18.503 13.47,17.125 L13.47,10.125 Z M82.25,85.875 C82.25,88.356 80.231,90.375 77.75,90.375 L8.25,90.375 C5.769,90.375 3.75,88.356 3.75,85.875 L3.75,34.045 L82.25,34.045 L82.25,85.875 Z M82.25,31.045 L3.75,31.045 L3.75,17.625 C3.75,15.144 5.769,13.125 8.25,13.125 L10.47,13.125 L10.47,17.125 C10.47,20.158 12.938,22.625 15.97,22.625 L17.97,22.625 C20.624,22.625 22.844,20.736 23.358,18.232 C23.432,17.875 23.47,17.504 23.47,17.125 L23.47,13.125 L62.53,13.125 L62.53,17.125 C62.53,17.504 62.568,17.875 62.642,18.232 C63.156,20.736 65.375,22.625 68.03,22.625 L70.03,22.625 C73.062,22.625 75.53,20.158 75.53,17.125 L75.53,13.125 L77.75,13.125 C80.231,13.125 82.25,15.144 82.25,17.625 L82.25,31.045 Z" id="Shape"></path>
                <path d="M28.25,38.375 L11.47,38.375 L11.47,59.375 L28.25,59.375 L28.25,38.375 Z M25.25,56.375 L14.47,56.375 L14.47,41.375 L25.25,41.375 L25.25,56.375 Z" id="Shape"></path>
                <path d="M51.25,38.375 L34.47,38.375 L34.47,59.375 L51.25,59.375 L51.25,38.375 Z M48.25,56.375 L37.47,56.375 L37.47,41.375 L48.25,41.375 L48.25,56.375 Z" id="Shape"></path>
                <path d="M74.25,38.375 L57.47,38.375 L57.47,59.375 L74.25,59.375 L74.25,38.375 Z M71.25,56.375 L60.47,56.375 L60.47,41.375 L71.25,41.375 L71.25,56.375 Z" id="Shape"></path>
                <path d="M28.25,65.705 L11.47,65.705 L11.47,86.705 L28.25,86.705 L28.25,65.705 Z M25.25,83.705 L14.47,83.705 L14.47,68.705 L25.25,68.705 L25.25,83.705 Z" id="Shape"></path>
                <path d="M51.25,65.705 L34.47,65.705 L34.47,86.705 L51.25,86.705 L51.25,65.705 Z M48.25,83.705 L37.47,83.705 L37.47,68.705 L48.25,68.705 L48.25,83.705 Z" id="Shape"></path>
                <path d="M74.25,65.705 L57.47,65.705 L57.47,86.705 L74.25,86.705 L74.25,65.705 Z M71.25,83.705 L60.47,83.705 L60.47,68.705 L71.25,68.705 L71.25,83.705 Z" id="Shape"></path>
            </g>
        </g>
    </g>
</svg>