<?xml version="1.0" encoding="UTF-8"?>
<svg width="90px" height="90px" viewBox="0 0 90 90" version="1.1" xmlns="http://www.w3.org/2000/svg" xmlns:xlink="http://www.w3.org/1999/xlink">
    <!-- Generator: Sketch 52.4 (67378) - http://www.bohemiancoding.com/sketch -->
    <title>Path</title>
    <desc>Created with Sketch.</desc>
    <g id="Page-1" stroke="none" stroke-width="1" fill="none" fill-rule="evenodd" opacity="0.753882999">
        <g id="close" fill="#FFFFFF">
            <g id="Page-1">
                <g id="close">
                    <g id="Page-1">
                        <g id="close">
                            <g id="Group" transform="translate(0.000000, 0.637820)">
                                <path d="M2.96875,0.27191 C2.15660341,0.278195101 1.4289005,0.774991709 1.12726856,1.52907377 C0.825636611,2.28315582 1.00997727,3.1447688 1.59375,3.70942 L42.1875,44.3032 L1.59375,84.8969 C0.998237586,85.3776819 0.729327761,86.1561618 0.901130643,86.9019969 C1.07293352,87.647832 1.65531804,88.2302165 2.40115314,88.4020194 C3.14698825,88.5738222 3.92546814,88.3049124 4.40625,87.7094 L45,47.1157 L85.59375,87.7094 C86.0745319,88.3049124 86.8530118,88.5738222 87.5988469,88.4020194 C88.344682,88.2302165 88.9270665,87.647832 89.0988694,86.9019969 C89.2706722,86.1561618 89.0017624,85.3776819 88.40625,84.8969 L47.8125,44.3032 L88.40625,3.70942 C88.9985871,3.13690159 89.1792854,2.25975582 88.8614605,1.4997375 C88.5436356,0.739719182 87.7923136,0.252326222 86.96875,0.27191 C86.4463445,0.292519478 85.9527772,0.51686829 85.59375,0.89691 L45,41.49065 L4.40625,0.89691 C4.03208428,0.501661155 3.51299732,0.275971172 2.96875,0.27191 Z" id="Path"></path>
                            </g>
                        </g>
                    </g>
                </g>
            </g>
        </g>
    </g>
</svg>