<?xml version="1.0" encoding="UTF-8"?>
<svg width="34px" height="58px" viewBox="0 0 34 58" version="1.1" xmlns="http://www.w3.org/2000/svg" xmlns:xlink="http://www.w3.org/1999/xlink">
    <!-- Generator: Sketch 52.4 (67378) - http://www.bohemiancoding.com/sketch -->
    <title>Group</title>
    <desc>Created with Sketch.</desc>
    <g id="Page-1" stroke="none" stroke-width="1" fill="none" fill-rule="evenodd">
        <g id="question" transform="translate(0.000000, -1.000000)" fill="#FFAA00" fill-rule="nonzero">
            <g id="Group" transform="translate(0.000000, 0.637820)">
                <path d="M16.980916,0.36216 C8.608517,0.36216 1.785217,5.81376 0.086917,12.61216 C-0.314883,14.14086 0.721817,15.89686 2.254817,16.28376 C3.787617,16.67066 5.533717,15.61716 5.905817,14.08086 C6.817817,10.43036 11.334916,6.36216 16.980916,6.36216 C19.762316,6.36216 22.681316,7.38316 24.739516,9.04966 C26.797816,10.71616 27.993216,12.86216 27.993216,15.36216 C27.993216,18.64546 27.322916,20.11926 26.428916,21.26836 C25.535016,22.41756 24.102616,23.31096 22.236716,24.64336 C20.370916,25.97586 18.150116,27.8156 16.542816,30.7997 C14.935716,33.7838 14.008716,37.7789 14.008716,43.3622 C13.853116,45.0195 15.331616,46.643 16.996416,46.643 C18.661316,46.643 20.139816,45.0195 19.984216,43.3622 C19.984216,38.4455 20.811716,35.5345 21.830016,33.6434 C22.848416,31.7526 24.105816,30.7172 25.740616,29.5497 C27.375416,28.3822 29.452716,27.1817 31.184216,24.95586 C32.915816,22.73006 34.000016,19.57886 34.000016,15.36216 C34.000016,10.86216 31.684516,6.97696 28.493816,4.39336 C25.302916,1.80986 21.192916,0.36216 16.980916,0.36216 Z M17.011916,50.3622 C14.800316,50.3622 13.007516,52.1531 13.007516,54.3622 C13.007516,56.5713 14.800316,58.3622 17.011916,58.3622 C19.223416,58.3622 21.016416,56.5713 21.016416,54.3622 C21.016416,52.1531 19.223416,50.3622 17.011916,50.3622 Z" id="Shape"></path>
            </g>
        </g>
    </g>
</svg>