<?xml version="1.0" encoding="UTF-8"?>
<svg width="293px" height="293px" viewBox="0 0 293 293" version="1.1" xmlns="http://www.w3.org/2000/svg" xmlns:xlink="http://www.w3.org/1999/xlink">
    <!-- Generator: Sketch 52.4 (67378) - http://www.bohemiancoding.com/sketch -->
    <title>Group</title>
    <desc>Created with Sketch.</desc>
    <g id="Page-1" stroke="none" stroke-width="1" fill="none" fill-rule="evenodd">
        <g id="play" fill="#FFFFFF" fill-rule="nonzero">
            <g id="Group">
                <path d="M147,0 C228,0 293,66 293,147 C293,228 228,293 147,293 C66,293 0,228 0,147 C0,66 66,0 147,0 Z M147,20 C77,20 20,77 20,147 C20,217 77,273 147,273 C217,273 273,217 273,147 C273,77 217,20 147,20 Z" id="Shape"></path>
                <path d="M188,147 C168,135 148,123 127,111 L127,182 C148,170 168,158 188,147 Z M209,158 C181,174 154,190 126,206 C118,210 107,204 107,195 L107,99 C107,89 118,83 126,88 C154,104 181,120 209,136 C217,141 217,153 209,158 Z" id="Shape"></path>
            </g>
        </g>
    </g>
</svg>