<?xml version="1.0" encoding="UTF-8"?>
<svg width="64px" height="56px" viewBox="0 0 64 56" version="1.1" xmlns="http://www.w3.org/2000/svg" xmlns:xlink="http://www.w3.org/1999/xlink">
    <!-- Generator: Sketch 52.4 (67378) - http://www.bohemiancoding.com/sketch -->
    <title>Group</title>
    <desc>Created with Sketch.</desc>
    <g id="Page-1" stroke="none" stroke-width="1" fill="none" fill-rule="evenodd" opacity="0.796293713">
        <g id="thumbs_up" fill="#3CB371">
            <g id="Page-1">
                <g id="thumbs">
                    <g id="Group">
                        <path d="M12.977,22.705 L2.568,22.705 C1.596,22.705 0.833,23.468 0.833,24.44 L0.833,52.197 C0.833,53.169 1.596,53.932 2.568,53.932 L12.977,53.932 C13.949,53.932 14.711,53.169 14.711,52.197 L14.711,24.44 C14.712,23.468 13.949,22.705 12.977,22.705 Z" id="Path"></path>
                        <path d="M63.167,25.993 C63.167,23.166 61.226,20.305 57.519,20.305 L40.712,20.305 C43.113,16.01 43.819,9.969 42.15,5.549 C40.924,2.298 38.581,0.401 35.549,0.208 L35.5,0.204 C33.527,0.083 31.819,1.561 31.655,3.531 C31.223,7.915 29.302,15.669 26.549,18.422 C24.231,20.74 22.247,21.711 18.958,23.319 C18.482,23.552 17.962,23.806 17.412,24.08 C17.422,24.199 17.428,24.318 17.428,24.44 L17.428,51.914 C17.825,52.05 18.217,52.185 18.602,52.317 C24.03,54.188 28.721,55.803 35.891,55.803 L49.479,55.803 C53.187,55.803 55.127,52.941 55.127,50.115 C55.127,49.276 54.957,48.435 54.62,47.665 C55.855,47.443 56.936,46.849 57.737,45.94 C58.646,44.907 59.147,43.534 59.147,42.074 C59.147,41.238 58.977,40.397 58.641,39.629 C61.618,39.115 63.168,36.56 63.168,34.034 C63.168,32.569 62.646,31.094 61.628,30.014 C62.644,28.933 63.167,27.458 63.167,25.993 Z" id="Path"></path>
                    </g>
                </g>
            </g>
        </g>
    </g>
</svg>