<?xml version="1.0" encoding="UTF-8"?>
<svg width="68px" height="62px" viewBox="0 0 68 62" version="1.1" xmlns="http://www.w3.org/2000/svg" xmlns:xlink="http://www.w3.org/1999/xlink">
    <!-- Generator: Sketch 52.4 (67378) - http://www.bohemiancoding.com/sketch -->
    <title>down</title>
    <desc>Created with Sketch.</desc>
    <g id="Page-1" stroke="none" stroke-width="1" fill="none" fill-rule="evenodd">
        <g id="down" fill="#CA0E0E">
            <path d="M66.4,39.5 L49.5,39.5 C48.9,39.5 48.5,39 48.5,38.5 L48.5,4.8 C48.5,4.2 49,3.8 49.5,3.8 L66.4,3.8 C67,3.8 67.4,4.3 67.4,4.8 L67.4,38.5 C67.4,39.1 67,39.5 66.4,39.5 Z" id="Path"></path>
            <path d="M1.4,35.6 C1.8,38.6 4.3,40.9 7.4,40.8 L18.6,39.9 C18.7,39.9 18.5,39.9 18.6,39.9 L20.3,40.1 C20.9,40.2 21.2,40.8 21,41.4 C18.1,47.8 15.8,53.7 17.8,57.8 C18.8,59.7 20.6,61.1 23.3,61.7 C24.2,61.9 25,61.4 25.3,60.6 C25.3,60.5 27.2,55.9 32,48.7 C32.1,48.6 32.2,48.5 32.3,48.4 C36.5,45.8 40.4,43.2 42.5,35.9 C42.6,35.5 43,35.3 43.3,35.3 C43.7,35.3 44.2,35.3 44.7,35.3 C45.2,35.3 45.6,34.9 45.6,34.4 L45.6,7.9 C45.6,7.4 45.2,7 44.7,7 L40.3,7 C40.1,7 39.9,6.9 39.8,6.8 L31.7,0.6 C31.4,0.3 31,0.2 30.6,0.2 L9.8,0.2 C7.4,0.2 5.2,2 4.7,4.3 L3.3,10.4 C3.3,10.4 1.1,19.3 1.1,19.4 L0.7,28.1 L1.4,35.6 Z" id="Path"></path>
        </g>
    </g>
</svg>